<?xml version="1.0" encoding="UTF-8"?>
<svg width="63px" height="63px" viewBox="0 0 63 63" version="1.1" xmlns="http://www.w3.org/2000/svg" xmlns:xlink="http://www.w3.org/1999/xlink">
    <!-- Generator: Sketch 48.2 (47327) - http://www.bohemiancoding.com/sketch -->
    <title>Group</title>
    <desc>Created with Sketch.</desc>
    <defs></defs>
    <g id="card-tag" stroke="none" stroke-width="1" fill="none" fill-rule="evenodd">
        <g id="Group">
            <polygon id="background" fill="#F57777" points="0 0 63 0 63 63"></polygon>
            <path d="M21.315,21.01 L21.315,22.12 L17.585,22.12 L17.585,23.97 L20.935,23.97 L20.935,25.02 L17.585,25.02 L17.585,26.89 L21.435,26.89 L21.435,28 L16.405,28 L16.405,21.01 L21.315,21.01 Z M23.905,25.12 L23.905,28 L22.785,28 L22.785,22.68 L23.905,22.68 L23.905,23.65 C24.0650008,23.3233317 24.3066651,23.0666676 24.63,22.88 C24.953335,22.6933324 25.3016648,22.6 25.675,22.6 C26.5150042,22.6 27.0849985,22.9466632 27.385,23.64 C27.9116693,22.9466632 28.5683294,22.6 29.355,22.6 C29.955003,22.6 30.4399982,22.7833315 30.81,23.15 C31.1800019,23.5166685 31.365,24.0466632 31.365,24.74 L31.365,28 L30.245,28 L30.245,25.08 C30.245,24.0999951 29.8383374,23.61 29.025,23.61 C28.6449981,23.61 28.3133348,23.7316655 28.03,23.975 C27.7466652,24.2183346 27.5983334,24.573331 27.585,25.04 L27.585,28 L26.465,28 L26.465,25.08 C26.465,24.5733308 26.3750009,24.2016678 26.195,23.965 C26.0149991,23.7283321 25.7316686,23.61 25.345,23.61 C24.9583314,23.61 24.6216681,23.7383321 24.335,23.995 C24.0483319,24.2516679 23.905,24.6266642 23.905,25.12 Z M40.345,23.34 C40.8516692,23.8333358 41.105,24.4899959 41.105,25.31 C41.105,26.1300041 40.8533358,26.7966641 40.35,27.31 C39.8466641,27.8233359 39.2600034,28.08 38.59,28.08 C37.9199967,28.08 37.318336,27.7866696 36.785,27.2 L36.785,28 L35.665,28 L35.665,20.58 L36.785,20.58 L36.785,23.61 C37.2250022,22.9366633 37.8016631,22.6 38.515,22.6 C39.2283369,22.6 39.8383308,22.8466642 40.345,23.34 Z M37.225,26.595 C37.5316682,26.9183349 37.9049978,27.08 38.345,27.08 C38.7850022,27.08 39.1683317,26.9200016 39.495,26.6 C39.8216683,26.2799984 39.985,25.8650025 39.985,25.355 C39.985,24.8449975 39.8250016,24.4216683 39.505,24.085 C39.1849984,23.7483316 38.8016689,23.58 38.355,23.58 C37.9083311,23.58 37.5316682,23.7483316 37.225,24.085 C36.9183318,24.4216683 36.765,24.8433308 36.765,25.35 C36.765,25.8566692 36.9183318,26.271665 37.225,26.595 Z M45.175,23.73 C44.6216639,23.73 44.2050014,23.9099982 43.925,24.27 C43.6449986,24.6300018 43.505,25.1133303 43.505,25.72 L43.505,28 L42.385,28 L42.385,22.68 L43.505,22.68 L43.505,23.75 C43.6850009,23.416665 43.9299984,23.1433344 44.24,22.93 C44.5500016,22.7166656 44.8783316,22.6066667 45.225,22.6 L45.235,23.73 L45.175,23.73 Z M51.305,25.83 L47.135,25.83 C47.1616668,26.2166686 47.3383317,26.5283322 47.665,26.765 C47.9916683,27.0016679 48.3649979,27.12 48.785,27.12 C49.45167,27.12 49.9583316,26.9100021 50.305,26.49 L50.945,27.19 C50.3716638,27.7833363 49.6250046,28.08 48.705,28.08 C47.9583296,28.08 47.323336,27.8316691 46.8,27.335 C46.276664,26.8383309 46.015,26.1716709 46.015,25.335 C46.015,24.4983291 46.281664,23.8333358 46.815,23.34 C47.348336,22.8466642 47.976663,22.6 48.7,22.6 C49.423337,22.6 50.0383308,22.8183312 50.545,23.255 C51.0516692,23.6916688 51.305,24.2933295 51.305,25.06 L51.305,25.83 Z M47.135,24.95 L50.185,24.95 C50.185,24.5033311 50.0450014,24.1600012 49.765,23.92 C49.4849986,23.6799988 49.140002,23.56 48.73,23.56 C48.319998,23.56 47.9516683,23.6849987 47.625,23.935 C47.2983317,24.1850012 47.135,24.5233312 47.135,24.95 Z M53.885,28 L51.745,22.68 L52.905,22.68 L54.525,26.7 L56.145,22.68 L57.305,22.68 L55.165,28 L53.885,28 Z M63.145,25.83 L58.975,25.83 C59.0016668,26.2166686 59.1783317,26.5283322 59.505,26.765 C59.8316683,27.0016679 60.2049979,27.12 60.625,27.12 C61.29167,27.12 61.7983316,26.9100021 62.145,26.49 L62.785,27.19 C62.2116638,27.7833363 61.4650046,28.08 60.545,28.08 C59.7983296,28.08 59.163336,27.8316691 58.64,27.335 C58.1166641,26.8383309 57.855,26.1716709 57.855,25.335 C57.855,24.4983291 58.121664,23.8333358 58.655,23.34 C59.188336,22.8466642 59.8166631,22.6 60.54,22.6 C61.263337,22.6 61.8783308,22.8183312 62.385,23.255 C62.8916692,23.6916688 63.145,24.2933295 63.145,25.06 L63.145,25.83 Z M58.975,24.95 L62.025,24.95 C62.025,24.5033311 61.8850014,24.1600012 61.605,23.92 C61.3249986,23.6799988 60.980002,23.56 60.57,23.56 C60.1599979,23.56 59.7916683,23.6849987 59.465,23.935 C59.1383317,24.1850012 58.975,24.5233312 58.975,24.95 Z" id="title" fill="#FFFFFF" transform="translate(39.775000, 24.330000) rotate(45.000000) translate(-39.775000, -24.330000) "></path>
        </g>
    </g>
</svg>